<svg xmlns="http://www.w3.org/2000/svg" x="0px" y="0px"
width="48" height="48"
viewBox="0 0 172 172"
style=" fill:#000000;"><g fill="none" fill-rule="nonzero" stroke="none" stroke-width="1" stroke-linecap="butt" stroke-linejoin="miter" stroke-miterlimit="10" stroke-dasharray="" stroke-dashoffset="0" font-family="none" font-weight="none" font-size="none" text-anchor="none" style="mix-blend-mode: normal"><path d="M0,172v-172h172v172z" fill="none"></path><g><path d="M85.75992,7.16667l-75.00992,26.10458l11.85367,97.19075l63.23508,34.37133l63.56117,-34.83717l11.85008,-97.18717z" fill="#ffffff"></path><path d="M153.43117,37.72175l-67.43117,-22.90467v141.75667l56.73133,-31.09617z" fill="#b71c1c"></path><path d="M85.78858,14.74542l-67.22333,23.39558l10.70342,87.78808l56.55575,30.73783l0.17558,-0.09317v-141.75667z" fill="#dd2c00"></path><path d="M86,21.48567v34.07033l30.73783,66.27733h15.79892z" fill="#ffffff"></path><path d="M39.46325,121.83333h15.79892l30.73783,-66.27733v-34.07033z" fill="#eeeeee"></path><path d="M86,86h21.5v14.33333h-21.5z" fill="#ffffff"></path><path d="M64.5,86h21.5v14.33333h-21.5z" fill="#eeeeee"></path></g></g></svg>