<svg xmlns="http://www.w3.org/2000/svg" x="0px" y="0px"
width="22" height="22"
viewBox="0 0 172 172"
style=" fill:#000000;"><g fill="none" fill-rule="nonzero" stroke="none" stroke-width="1" stroke-linecap="butt" stroke-linejoin="miter" stroke-miterlimit="10" stroke-dasharray="" stroke-dashoffset="0" font-family="none" font-weight="none" font-size="none" text-anchor="none" style="mix-blend-mode: normal"><path d="M0,172v-172h172v172z" fill="none"></path><g fill="#f0f8ff"><path d="M55.04,10.32c-24.65626,0 -44.72,20.06374 -44.72,44.72v61.92c0,24.65626 20.06374,44.72 44.72,44.72h61.92c24.65626,0 44.72,-20.06374 44.72,-44.72v-61.92c0,-24.65626 -20.06374,-44.72 -44.72,-44.72zM55.04,17.2h61.92c20.9375,0 37.84,16.9025 37.84,37.84v61.92c0,20.9375 -16.9025,37.84 -37.84,37.84h-61.92c-20.9375,0 -37.84,-16.9025 -37.84,-37.84v-61.92c0,-20.9375 16.9025,-37.84 37.84,-37.84zM127.28,37.84c-3.79972,0 -6.88,3.08028 -6.88,6.88c0,3.79972 3.08028,6.88 6.88,6.88c3.79972,0 6.88,-3.08028 6.88,-6.88c0,-3.79972 -3.08028,-6.88 -6.88,-6.88zM86,48.16c-20.85771,0 -37.84,16.98229 -37.84,37.84c0,20.85771 16.98229,37.84 37.84,37.84c20.85771,0 37.84,-16.98229 37.84,-37.84c0,-20.85771 -16.98229,-37.84 -37.84,-37.84zM86,55.04c17.13948,0 30.96,13.82052 30.96,30.96c0,17.13948 -13.82052,30.96 -30.96,30.96c-17.13948,0 -30.96,-13.82052 -30.96,-30.96c0,-17.13948 13.82052,-30.96 30.96,-30.96z"></path></g></g></svg>