<svg xmlns="http://www.w3.org/2000/svg" x="0px" y="0px"
width="22" height="22"
viewBox="0 0 172 172"
style=" fill:#000000;"><g fill="none" fill-rule="nonzero" stroke="none" stroke-width="1" stroke-linecap="butt" stroke-linejoin="miter" stroke-miterlimit="10" stroke-dasharray="" stroke-dashoffset="0" font-family="none" font-weight="none" font-size="none" text-anchor="none" style="mix-blend-mode: normal"><path d="M0,172v-172h172v172z" fill="none"></path><g fill="#7e89a6"><path d="M51.6,143.33333h-28.66667v-86h28.66667zM37.2724,45.86667c-7.9292,0 -14.33907,-6.42707 -14.33907,-14.33907c0,-7.912 6.42133,-14.3276 14.33907,-14.3276c7.90053,0 14.3276,6.42707 14.3276,14.3276c0,7.912 -6.42707,14.33907 -14.3276,14.33907zM154.8,143.33333h-27.56013v-41.85333c0,-9.98173 -0.1892,-22.81867 -14.3276,-22.81867c-14.35053,0 -16.55787,10.8704 -16.55787,22.09627v42.57573h-27.5544v-86.06307h26.4536v11.75907h0.37267c3.6808,-6.76533 12.6764,-13.8976 26.0924,-13.8976c27.92133,0 33.08133,17.82493 33.08133,40.99907z"></path></g></g></svg>