<svg xmlns="http://www.w3.org/2000/svg" x="0px" y="0px"
width="13" height="13"
viewBox="0 0 172 172"
style=" fill:#000000;"><g fill="none" fill-rule="nonzero" stroke="none" stroke-width="1" stroke-linecap="butt" stroke-linejoin="miter" stroke-miterlimit="10" stroke-dasharray="" stroke-dashoffset="0" font-family="none" font-weight="none" font-size="none" text-anchor="none" style="mix-blend-mode: normal"><path d="M0,172v-172h172v172z" fill="none"></path><g fill="#717880"><path d="M39.86458,0c-10.2181,0 -20.46419,3.89128 -28.21875,11.64583c-15.50912,15.50912 -15.50912,40.92839 0,56.4375l26.20313,26.20313c2.77149,2.85547 7.33464,2.88347 10.1901,0.11198c2.85547,-2.77149 2.88347,-7.33463 0.11198,-10.1901l-26.42708,-26.42708c-10.02213,-10.02213 -10.02213,-26.03515 0,-36.05729c10.02214,-10.02213 26.03516,-10.02213 36.05729,0l35.16146,35.16146c10.02214,10.02214 10.02214,26.03516 0,36.05729c-1.17578,1.17578 -2.49153,2.01563 -3.80729,2.91146c-3.27539,2.23958 -4.14323,6.69076 -1.90365,9.96615c2.23958,3.27539 6.69076,4.14323 9.96615,1.90365c2.04362,-1.39974 4.03125,-2.91146 5.82292,-4.70312c15.50912,-15.50911 15.50912,-40.92838 0,-56.4375l-34.9375,-34.9375c-7.75456,-7.75456 -18.00065,-11.64583 -28.21875,-11.64583zM77.26563,63.60417c-0.30794,0.05599 -0.61588,0.13997 -0.89583,0.22396c-1.0638,0.22396 -2.04362,0.67188 -2.91146,1.34375c-1.51172,1.14778 -3.07942,2.40756 -4.47917,3.80729c-15.50911,15.50912 -15.50911,40.92839 0,56.4375l34.9375,34.9375c15.50912,15.50912 40.92839,15.50912 56.4375,0c15.50912,-15.50911 15.50912,-40.92838 0,-56.4375l-26.20312,-25.97917c-1.73567,-2.1276 -4.50716,-3.10742 -7.19466,-2.49153c-2.65951,0.61588 -4.75912,2.71549 -5.375,5.375c-0.61589,2.6875 0.36393,5.45899 2.49153,7.19466l26.20313,26.20313c10.02214,10.02214 10.02214,26.03516 0,36.05729c-10.02213,10.02214 -26.03515,10.02214 -36.05729,0l-35.16146,-35.16146c-10.02213,-10.02213 -10.02213,-26.03515 0,-36.05729c0.86784,-0.89583 1.93164,-1.51172 2.91146,-2.23958c2.88347,-1.76367 4.14323,-5.31901 2.99544,-8.51042c-1.11979,-3.1914 -4.33919,-5.15104 -7.69857,-4.70312z"></path></g></g></svg>